<svg xmlns="http://www.w3.org/2000/svg" height="48" viewBox="0 -960 960 960" width="48"><path d="m479-91-56-50q-106.768-99.121-177.384-170.561Q175-383 133-441T74.5-546.5Q58-594 58-642.098q0-99.24 66.864-166.571Q191.727-876 289-876q56.288 0 104.644 24.5Q442-827 479-780q42-49 88.534-72.5Q614.068-876 669-876q98.973 0 165.986 67.359Q902-741.282 902-642q0 47.97-17 94.985T826.5-442Q785-384 714.517-311.948 644.034-239.897 536-141l-57 50Zm-.5-120q100.736-91.995 165.118-156.998Q708-433 745-481t51.5-86.783q14.5-38.783 14.5-74.311Q811-703 770.639-744q-40.361-41-100.928-41-49.01 0-91.361 32.5Q536-720 508-664h-58q-26.749-56-70.43-88.5-43.681-32.5-90.631-32.5-60.212 0-99.575 40.071Q150-704.857 150-641.684q0 36.771 14.94 75.844 14.94 39.074 52 87.457Q254-430 317-365t161.5 154Zm2.5-288Z"/></svg>